<?xml version="1.0" encoding="UTF-8" standalone="no"?>
<!DOCTYPE svg PUBLIC "-//W3C//DTD SVG 1.1//EN" "http://www.w3.org/Graphics/SVG/1.1/DTD/svg11.dtd">
<svg version="1.1" xmlns="http://www.w3.org/2000/svg" xmlns:xlink="http://www.w3.org/1999/xlink" preserveAspectRatio="xMidYMid meet" viewBox="5.109187505270857 112.25777064344686 635.0000000000002 436.53898398590286" width="631" height="432.54"><defs><path d="M422.73 150.2C423.1 151.19 438.18 170.06 456.36 192.13C474.41 214.21 489.13 232.34 488.88 232.58C486.41 234.43 452.16 253.42 451.29 253.42C450.55 253.42 440.9 250.09 429.9 245.9C418.89 241.71 408.5 238.26 407.02 238.26C403.31 238.26 393.79 245.29 393.79 247.87C393.91 249.11 401.7 257.99 411.23 267.85C420.75 277.6 428.66 286.84 429.03 288.2C429.28 289.56 430.02 300.66 430.89 312.87C431.88 329.88 432.62 335.43 434.1 336.42C436.33 338.15 446.72 336.3 449.44 333.71C450.42 332.72 455 322.36 459.45 310.77C460 309.35 462.72 302.28 467.61 289.56C479.63 285.56 486.31 283.34 487.65 282.9C498.65 279.2 508.05 276.61 508.42 276.98C509.16 277.72 515.84 316.94 522.52 359.6C526.1 382.91 526.35 383.16 537.85 381.31C548.36 379.46 551.45 377.73 553.06 372.43C553.8 370.21 559.24 341.35 565.18 308.18C565.9 304.18 569.53 284.16 576.06 248.12C581.33 245.46 584.26 243.98 584.84 243.68C621.94 224.69 641.48 205.45 636.28 192.87C631.34 181.03 608.83 181.16 573.71 193.37C564.93 196.45 556.77 199.16 555.78 199.53C554.79 199.78 529.19 185.1 498.9 166.73C468.73 148.48 442.76 133.43 441.27 133.43C439.79 133.43 435.34 135.9 431.38 138.98C423.47 145.15 421.61 147.49 422.73 150.2ZM608.95 217.91C608.71 218.15 607.47 219.34 605.24 221.48C605.24 219.26 605.24 218.03 605.24 217.78C605.24 211.37 602.9 205.45 598.44 200.89C594.86 197.19 594.49 196.45 596.34 195.96C600.55 194.72 605.99 196.45 609.33 200.03C614.15 205.45 614.02 212.97 608.95 217.91Z" id="b3heeMuWmy"></path><path d="M95.33 376.37C79.12 378.8 55.36 378.42 46.45 375.73C37.54 372.91 28.63 364.71 28.38 358.82C27.76 346.26 30.11 338.06 38.53 323.46C38.94 322.75 41 319.2 44.71 312.82C40.56 317.05 38.25 319.4 37.78 319.87C24.17 333.83 10.56 354.84 7.46 366.89C5.48 374.7 5.73 385.21 7.84 390.59C10.56 397.38 18.97 405.45 27.64 409.68C81.47 435.68 215.37 414.93 348.41 359.84C369.7 351.13 400.76 337.16 402 336.01C402.24 335.76 401.75 327.04 401.01 316.67C400.91 315.4 400.46 309.08 399.64 297.71C392.89 290.17 389.13 285.99 388.38 285.15C382.19 278.11 376.75 272.47 376.38 272.6C376.01 272.6 365.36 277.98 352.74 284.51C267.35 328.45 160.43 366.63 95.33 376.37Z" id="aTnS253nM"></path><path d="M69.62 321C69.97 316.47 71.2 301.85 71.8 297.42C91.46 154.4 246.35 70.75 378.34 135.44C380.68 136.59 386.54 139.47 395.92 144.06C395.76 148.26 395.66 150.88 395.62 151.92C395.47 155.9 396.35 159.85 398.17 163.4C399.07 165.15 398.23 163.53 398.94 164.91C401.43 169.75 404.47 174.28 408 178.41C411.06 181.99 412.23 183.36 414.61 186.15C414.61 186.15 432.52 206 432.52 206C434.03 207.59 433.33 206.86 435.84 209.49C436.95 210.65 435.77 212.52 434.25 212.01C429.73 210.52 424.54 208.8 420.66 207.52C414.81 205.58 408.49 205.6 402.66 207.56C399.62 208.58 402.64 207.57 400.39 208.33C391.91 211.18 384.25 216.05 378.08 222.53C376.64 224.04 376.04 224.67 373.18 227.68C371.72 229.21 369.7 230.07 367.58 230.07C366.7 230.07 367.51 230.07 366.66 230.07C364.39 230.07 362.17 229.34 360.35 227.98C355.99 224.74 345.49 216.94 341.07 213.66C339.45 212.46 338.35 210.68 338 208.7C337.13 203.76 335.42 194.14 334.64 189.73C333.99 186.06 331.96 182.78 328.96 180.57C328.6 180.3 327.69 179.63 326.25 178.56C326.01 177.39 325.86 176.66 325.81 176.36C325.41 174.4 325.83 172.35 326.96 170.7C328.78 168.02 332.12 163.12 333.85 160.58C334.94 158.97 334.12 156.77 332.25 156.26C327.7 155.05 326.65 154.77 324.29 154.14C314.48 151.51 304.39 150.05 294.24 149.79C292.4 149.74 294.31 149.79 290.51 149.7C287.04 149.61 283.69 150.98 281.28 153.48C278.17 156.7 272.74 162.35 269.65 165.55C267.17 168.13 265.89 171.63 266.12 175.21C266.15 175.7 266.06 174.25 266.13 175.41C266.23 176.92 266.55 178.4 267.07 179.82C268.74 184.31 272.67 194.88 274.26 199.18C275.02 201.21 276.35 202.99 278.09 204.29C280.33 205.96 285.1 209.52 287.52 211.33C288.56 212.11 288.91 213.51 288.35 214.69C285.97 219.66 280.33 231.49 278.09 236.19C277.11 238.25 277.42 240.69 278.88 242.43C280.97 244.92 285.52 250.35 287.78 253.04C288.64 254.06 288.54 255.57 287.56 256.46C278.78 264.48 257.16 284.21 249.12 291.55C245.52 294.83 241.3 297.37 236.7 298.99C234.72 299.7 235.25 299.51 233.15 300.25C228.91 301.75 224.58 302.93 220.17 303.77C217.09 304.36 212.23 305.29 208.59 305.99C206.31 306.43 204.58 308.29 204.3 310.59C204.15 311.86 204.06 312.59 203.88 314.06C203.67 315.81 202.48 317.3 200.82 317.89C193.49 320.52 174.74 327.23 167.55 329.81C165.63 330.49 163.5 329.61 162.62 327.77C161.04 324.42 161.03 324.4 160.25 322.75C156.66 315.16 150.63 308.99 143.12 305.22C139.44 303.38 134.45 300.87 129.39 298.33C126.53 296.9 124.7 294 124.63 290.8C124.48 282.66 124.06 260.67 123.89 251.83C123.88 251.48 123.39 251.39 123.26 251.73C120.08 260.41 111.6 283.5 108.54 291.84C107.74 294.02 107.27 296.3 107.15 298.61C106.69 307.26 105.48 330.34 105.01 339.15C104.93 340.77 103.78 342.13 102.2 342.49C95.24 344.05 84.45 346.49 79.35 347.64C73.42 348.97 67.89 344.2 68.34 338.14C68.96 329.73 69.39 324.02 69.62 321Z" id="aC2oDsAZ3"></path><path d="M497.42 375.98L490.04 332.6C487.88 337.3 486.52 340.23 485.98 341.41C480.86 352.53 471.32 361.01 459.68 364.8C456.4 365.86 460.81 364.43 456.53 365.82C447.93 368.62 438.66 368.55 430.11 365.61C428.08 364.92 427.7 364.79 423.81 363.45C421.33 362.61 418.63 362.73 416.24 363.81C407.7 367.66 384.63 378.05 375.8 382.02C374.4 382.65 373.51 384.04 373.51 385.57C373.51 387.22 373.51 389.31 373.51 390.88C373.51 392.74 374.34 394.51 375.77 395.71C377.89 397.47 383.19 401.86 391.66 408.9C384.38 416.6 379.84 421.42 378.02 423.34C376.74 424.7 376.22 426.6 376.63 428.42C378.41 436.21 382.78 455.41 384.48 462.88C385.15 465.82 386.52 468.55 388.47 470.86C389.04 471.54 390.48 473.24 392.79 475.97C391.02 477.27 389.92 478.09 389.48 478.42C358.55 501.28 320.59 512.58 282.19 510.34C281.69 510.31 280.45 510.23 278.45 510.12L293.83 496.27L292.6 479.35L318.75 467.35C320.97 459.33 322.36 454.32 322.92 452.31C323.82 449.04 325.33 445.96 327.36 443.23C329.08 440.92 331.87 437.18 333.76 434.64C335.15 432.78 335.54 430.35 334.8 428.15C334.12 426.08 333.19 423.29 332.49 421.19C331.77 419.05 330.18 417.31 328.1 416.41C323.65 414.47 313.06 409.88 308.48 407.89C306.77 407.15 304.85 407.06 303.08 407.62C302.54 407.79 301.21 408.22 299.06 408.9C298.35 410.32 297.91 411.21 297.73 411.56C297.04 412.95 295.63 413.82 294.08 413.82C292.37 413.82 291.69 413.82 290.46 413.82C287.19 413.82 283.92 414.24 280.75 415.07C269.21 418.08 236.71 426.56 224.51 429.75C223.86 429.91 223.64 430.72 224.12 431.19C227.1 434.18 235.12 442.2 238.14 445.22C238.65 445.73 238.68 446.55 238.22 447.1C236.29 449.37 232.84 453.43 231.29 455.25C229.59 457.25 228.93 459.94 229.51 462.5C230.78 468.11 233.96 482.14 239.04 504.58C237.11 504.01 235.9 503.65 235.42 503.5C201.24 493.37 170.88 473.26 148.22 445.74C148.02 445.51 147.54 444.92 146.76 443.97C144.83 444.19 143.62 444.33 143.14 444.39C140.25 444.72 137.46 445.64 134.94 447.1C134.11 447.58 135.16 446.97 134.26 447.49C132 448.79 129.35 449.26 126.79 448.8C125.86 448.63 125.32 448.54 123.96 448.29C122.91 448.11 122.15 447.2 122.15 446.13C122.15 445.97 122.15 445.56 122.15 444.89L106.77 447.97C115.39 458.49 120.77 465.07 122.93 467.7C230 598.41 439.34 558.36 490.61 397.37C491.52 394.52 493.79 387.39 497.42 375.98Z" id="e3QuUoquXa"></path></defs><g><g><use xlink:href="#b3heeMuWmy" opacity="1" fill="#347fc4" fill-opacity="1"></use><g><use xlink:href="#b3heeMuWmy" opacity="1" fill-opacity="0" stroke="#347fc4" stroke-width="1" stroke-opacity="0.48"></use></g></g><g><use xlink:href="#aTnS253nM" opacity="1" fill="#347fc4" fill-opacity="1"></use><g><use xlink:href="#aTnS253nM" opacity="1" fill-opacity="0" stroke="#347fc4" stroke-width="1" stroke-opacity="0.52"></use></g></g><g><use xlink:href="#aC2oDsAZ3" opacity="1" fill="#c2eabd" fill-opacity="1"></use><g><use xlink:href="#aC2oDsAZ3" opacity="1" fill-opacity="0" stroke="#c2eabd" stroke-width="1" stroke-opacity="1"></use></g></g><g><use xlink:href="#e3QuUoquXa" opacity="1" fill="#c2eabd" fill-opacity="1"></use><g><use xlink:href="#e3QuUoquXa" opacity="1" fill-opacity="0" stroke="#c2eabd" stroke-width="1" stroke-opacity="1"></use></g></g></g></svg>